<svg xmlns="http://www.w3.org/2000/svg" width="76.25" height="17.156" viewBox="0 0 76.25 17.156">
  <metadata><?xpacket begin="﻿" id="W5M0MpCehiHzreSzNTczkc9d"?>
<x:xmpmeta xmlns:x="adobe:ns:meta/" x:xmptk="Adobe XMP Core 5.6-c138 79.159824, 2016/09/14-01:09:01        ">
   <rdf:RDF xmlns:rdf="http://www.w3.org/1999/02/22-rdf-syntax-ns#">
      <rdf:Description rdf:about=""/>
   </rdf:RDF>
</x:xmpmeta>
                                                                                                    
                                                                                                    
                                                                                                    
                                                                                                    
                                                                                                    
                                                                                                    
                                                                                                    
                                                                                                    
                                                                                                    
                                                                                                    
                                                                                                    
                                                                                                    
                                                                                                    
                                                                                                    
                                                                                                    
                                                                                                    
                                                                                                    
                                                                                                    
                                                                                                    
                                                                                                    
                           
<?xpacket end="w"?></metadata>
<defs>
    <style>
      .cls-1 {
        fill: #4ca1fe;
        fill-rule: evenodd;
      }
    </style>
  </defs>
  <path id="Reflecx" class="cls-1" d="M30.219,25.276a3.436,3.436,0,0,1,1.6.292,2.092,2.092,0,0,1,.951,2.024,1.865,1.865,0,0,1-.983,1.867,3.969,3.969,0,0,1-1.666.27H26.395V25.276h3.824Zm0.72-2.879H23.01V38.974h3.385v-6.5h3.383A2.794,2.794,0,0,1,31.751,33a3.132,3.132,0,0,1,.548,2.114l0.023,1.541a8.149,8.149,0,0,0,.146,1.428q0.067,0.337.225,0.888h3.824V38.558a1.383,1.383,0,0,1-.64-0.945,8.389,8.389,0,0,1-.091-1.541V34.959a5.454,5.454,0,0,0-.478-2.592,3.1,3.1,0,0,0-1.625-1.31,3.332,3.332,0,0,0,1.968-1.614,4.967,4.967,0,0,0,.6-2.322,4.648,4.648,0,0,0-.307-1.743,5.161,5.161,0,0,0-.834-1.395,4.1,4.1,0,0,0-1.552-1.158,7.222,7.222,0,0,0-2.615-.427h0Zm12.9,6.635a2.809,2.809,0,0,1,1.9.661,2.674,2.674,0,0,1,.854,1.937H41.07a3.33,3.33,0,0,1,.854-1.9,2.542,2.542,0,0,1,1.913-.7h0Zm0-2.643a5.91,5.91,0,0,0-4.384,1.7,6.637,6.637,0,0,0-1.689,4.885q0,3.4,1.871,4.908a6.682,6.682,0,0,0,4.318,1.508A5.957,5.957,0,0,0,48.564,37.6a4,4,0,0,0,1.188-2.215H46.48a2.489,2.489,0,0,1-2.44,1.406,3.256,3.256,0,0,1-1.767-.461,2.941,2.941,0,0,1-1.282-2.587h8.929a15.664,15.664,0,0,0-.106-2.433,6.025,6.025,0,0,0-.977-2.534,4.988,4.988,0,0,0-2.118-1.813,6.98,6.98,0,0,0-2.883-.574h0Zm11.65-4.161q-2.666,0-3.363,1.1a4.141,4.141,0,0,0-.663,2.71v0.787H49.7v2.26h1.8v9.885h3.183V29.089h2.1v-2.26h-2.1V25.794a1.02,1.02,0,0,1,.242-0.658,1.042,1.042,0,0,1,.877-0.281q0.635,0.017.905,0.051V22.3q-0.428-.034-0.675-0.051t-0.551-.017h0ZM61.332,22.4H58.126V38.974h3.205V22.4Zm7.657,6.635a2.809,2.809,0,0,1,1.9.661,2.674,2.674,0,0,1,.854,1.937H66.222a3.329,3.329,0,0,1,.854-1.9,2.542,2.542,0,0,1,1.913-.7h0Zm0-2.643a5.91,5.91,0,0,0-4.384,1.7,6.637,6.637,0,0,0-1.689,4.885q0,3.4,1.871,4.908A6.683,6.683,0,0,0,69.1,39.39,5.958,5.958,0,0,0,73.716,37.6,4,4,0,0,0,74.9,35.387H71.632a2.489,2.489,0,0,1-2.44,1.406,3.256,3.256,0,0,1-1.767-.461,2.941,2.941,0,0,1-1.282-2.587h8.928a15.651,15.651,0,0,0-.106-2.433,6.025,6.025,0,0,0-.977-2.534,4.987,4.987,0,0,0-2.118-1.813,6.98,6.98,0,0,0-2.883-.574h0Zm17.746,4.723a4.811,4.811,0,0,0-1.739-3.655,6.413,6.413,0,0,0-3.777-1.035,5.371,5.371,0,0,0-4.256,1.754,7.19,7.19,0,0,0-1.542,4.909,7.085,7.085,0,0,0,1.4,4.549,5.231,5.231,0,0,0,4.357,1.754,5.146,5.146,0,0,0,4.469-2.1A5.36,5.36,0,0,0,86.7,34.521H83.427a3.019,3.019,0,0,1-.575,1.574,1.911,1.911,0,0,1-1.6.607,2.143,2.143,0,0,1-2.165-1.529,6.134,6.134,0,0,1-.316-2.165,6.673,6.673,0,0,1,.316-2.266,2.211,2.211,0,0,1,2.221-1.608,1.94,1.94,0,0,1,1.68.742,2.841,2.841,0,0,1,.462,1.237h3.284Zm4.288,7.861,2.13-3.685,2.11,3.685h3.993L95.071,32.71,99.1,26.738H95.284l-2,3.551-2.048-3.551H87.31l4,6.028L87.13,38.974h3.891Z" transform="translate(-23 -22.219)"/>
</svg>
